<?xml version="1.0" encoding="iso-8859-1"?>
<!-- Generator: Adobe Illustrator 14.0.0, SVG Export Plug-In . SVG Version: 6.00 Build 43363)  -->
<!DOCTYPE svg PUBLIC "-//W3C//DTD SVG 1.1//EN" "http://www.w3.org/Graphics/SVG/1.1/DTD/svg11.dtd">
<svg version="1.1" id="Layer_1" xmlns="http://www.w3.org/2000/svg" xmlns:xlink="http://www.w3.org/1999/xlink" x="0px" y="0px"
	 width="364px" height="379px" viewBox="0 0 364 379" enable-background="new 0 0 364 379" xml:space="preserve">
<g>
	<g>
		<path d="M127.584,117.072h2.861l8.943,14.488v-14.488h2.318v17.932h-2.729l-9.076-14.471v14.471h-2.318V117.072z"/>
	</g>
	<polygon points="97.922,132.625 97.547,133.377 96.672,133.502 79.047,102.877 79.547,102.252 80.422,102.375 	"/>
	<polygon points="101.422,125.75 100.172,126.502 86.922,103.502 88.172,102.752 	"/>
	<polygon points="122.547,127.375 122.922,128.752 98.047,134.127 97.547,133.377 97.922,132.625 	"/>
	<polygon points="135.672,90.627 136.547,90.125 137.172,90.627 133.547,113.25 132.047,113 	"/>
	<polygon points="103.797,76.375 103.672,75.5 104.297,75.002 136.547,89.25 136.547,90.125 135.672,90.627 	"/>
	<polygon points="105.047,84.002 105.547,82.625 129.922,93.502 129.297,94.875 	"/>
	<polygon points="96.672,133.502 97.547,133.377 98.047,134.127 82.547,166.375 80.797,166.375 	"/>
	<polygon points="171.297,72.502 171.297,74.25 137.172,90.627 136.547,90.125 136.547,89.25 	"/>
	<polygon points="80.422,102.375 79.547,102.252 79.297,101.502 102.797,75.252 103.672,75.5 103.797,76.375 	"/>
	<polygon points="95.297,40.125 97.047,40.627 104.297,75.002 103.672,75.5 102.797,75.252 	"/>
	<g>
		<path d="M131.635,11.387c1.238,1.195,1.926,2.555,2.062,4.076h-2.369c-0.262-1.156-0.789-2.072-1.574-2.746
			c-0.789-0.676-1.895-1.014-3.316-1.014c-1.734,0-3.135,0.621-4.201,1.863s-1.6,3.145-1.6,5.711c0,2.102,0.48,3.807,1.445,5.113
			c0.963,1.309,2.398,1.961,4.309,1.961c1.76,0,3.1-0.688,4.018-2.062c0.488-0.725,0.852-1.676,1.092-2.857h2.367
			c-0.207,1.889-0.9,3.471-2.074,4.748c-1.408,1.539-3.307,2.309-5.695,2.309c-2.061,0-3.789-0.631-5.188-1.895
			c-1.844-1.668-2.766-4.246-2.766-7.73c0-2.646,0.693-4.818,2.076-6.512c1.496-1.84,3.561-2.76,6.189-2.76
			C128.654,9.592,130.395,10.189,131.635,11.387z"/>
		<path d="M137.066,10.08h2.453v7.408h9.217V10.08h2.453v17.932h-2.453v-8.387h-9.217v8.387h-2.453V10.08z"/>
	</g>
	<g>
		<path d="M154.428,29.713c0.404-0.838,1.197-1.596,2.375-2.279l1.758-1.018c0.787-0.457,1.34-0.848,1.658-1.174
			c0.498-0.508,0.75-1.088,0.75-1.742c0-0.764-0.229-1.371-0.688-1.82c-0.457-0.449-1.068-0.676-1.83-0.676
			c-1.129,0-1.91,0.43-2.344,1.287c-0.232,0.459-0.361,1.096-0.385,1.91h-1.676c0.02-1.143,0.229-2.072,0.633-2.793
			c0.713-1.27,1.973-1.904,3.781-1.904c1.5,0,2.598,0.406,3.291,1.219c0.691,0.811,1.039,1.715,1.039,2.709
			c0,1.049-0.371,1.947-1.107,2.691c-0.43,0.434-1.195,0.959-2.299,1.574l-1.254,0.697c-0.6,0.328-1.068,0.645-1.412,0.943
			c-0.609,0.529-0.994,1.119-1.152,1.766h7.16v1.557h-9C153.787,31.531,154.021,30.549,154.428,29.713z"/>
	</g>
	<polygon points="113.172,24.127 114.172,25.125 97.047,40.627 95.297,40.125 	"/>
	<polygon points="117.547,28.875 118.547,30.002 103.797,43.25 102.797,42.127 	"/>
	<g>
		<path d="M9.617,89.826h2.453v7.408h9.217v-7.408h2.455v17.932h-2.455v-8.387H12.07v8.387H9.617V89.826z"/>
	</g>
	<g>
		<path d="M27.176,111.486c-0.697-0.852-1.047-1.889-1.047-3.107h1.721c0.074,0.848,0.23,1.465,0.477,1.848
			c0.426,0.691,1.199,1.035,2.316,1.035c0.865,0,1.562-0.23,2.086-0.695c0.525-0.463,0.787-1.062,0.787-1.795
			c0-0.902-0.275-1.535-0.828-1.895c-0.551-0.361-1.32-0.541-2.303-0.541c-0.109,0-0.221,0.002-0.334,0.004
			c-0.111,0.004-0.227,0.01-0.344,0.014v-1.455c0.172,0.02,0.314,0.031,0.43,0.037c0.117,0.006,0.242,0.01,0.377,0.01
			c0.617,0,1.123-0.098,1.52-0.293c0.695-0.342,1.045-0.953,1.045-1.832c0-0.652-0.232-1.156-0.697-1.51
			c-0.463-0.354-1.004-0.531-1.621-0.531c-1.098,0-1.857,0.365-2.279,1.098c-0.23,0.404-0.363,0.977-0.395,1.723h-1.627
			c0-0.977,0.193-1.807,0.586-2.49c0.67-1.221,1.852-1.832,3.541-1.832c1.338,0,2.371,0.299,3.104,0.893
			c0.732,0.596,1.1,1.457,1.1,2.586c0,0.807-0.217,1.459-0.65,1.959c-0.268,0.312-0.615,0.557-1.043,0.734
			c0.689,0.188,1.229,0.553,1.615,1.094c0.387,0.539,0.582,1.199,0.582,1.98c0,1.252-0.412,2.271-1.236,3.059
			c-0.822,0.787-1.992,1.18-3.506,1.18C29,112.762,27.875,112.338,27.176,111.486z"/>
	</g>
	<g>
		<path d="M50.717,91.133c1.238,1.195,1.926,2.555,2.062,4.076H50.41c-0.262-1.156-0.789-2.072-1.574-2.746
			c-0.789-0.676-1.895-1.014-3.316-1.014c-1.734,0-3.135,0.621-4.201,1.863s-1.6,3.145-1.6,5.711c0,2.102,0.48,3.807,1.445,5.113
			c0.963,1.309,2.398,1.961,4.309,1.961c1.76,0,3.1-0.688,4.018-2.062c0.488-0.725,0.852-1.676,1.092-2.857h2.367
			c-0.207,1.889-0.9,3.471-2.074,4.748c-1.408,1.539-3.307,2.309-5.695,2.309c-2.061,0-3.789-0.631-5.188-1.895
			c-1.844-1.668-2.766-4.246-2.766-7.73c0-2.646,0.693-4.818,2.076-6.512c1.496-1.84,3.561-2.76,6.189-2.76
			C47.736,89.338,49.477,89.936,50.717,91.133z"/>
	</g>
	<polygon points="56.672,99.25 56.922,97.752 79.297,101.502 79.547,102.252 79.047,102.877 	"/>
	<g>
		<path d="M205.826,116.838h2.861l8.943,14.488v-14.488h2.318v17.932h-2.729l-9.076-14.471v14.471h-2.318V116.838z"/>
	</g>
	<polygon points="209.172,112.127 207.672,112.502 203.422,90.877 204.047,90.377 204.922,90.75 	"/>
	<polygon points="246.297,129.25 246.797,130.125 246.172,130.75 223.672,126.502 224.047,125.002 	"/>
	<polygon points="242.797,122 242.547,123.502 224.922,120.125 225.172,118.625 	"/>
	<polygon points="261.047,97.625 261.922,97.502 262.422,98.127 247.547,130.125 246.797,130.125 246.297,129.25 	"/>
	<polygon points="235.422,73.875 235.547,72.877 236.422,72.625 262.172,96.627 261.922,97.502 261.047,97.625 	"/>
	<polygon points="234.047,81.375 235.172,80.377 254.547,98.377 253.547,99.5 	"/>
	<polygon points="204.922,90.75 204.047,90.377 204.047,89.627 234.922,72.502 235.547,72.877 235.422,73.875 	"/>
	<polygon points="204.047,89.627 204.047,90.377 203.422,90.877 171.297,74.25 171.297,72.502 	"/>
	<polygon points="198.547,94.127 197.797,95.5 170.797,81.502 171.547,80.125 	"/>
	<polygon points="261.672,162.625 260.047,162.625 246.172,130.75 246.797,130.125 247.547,130.125 	"/>
	<g>
		<path d="M246.518,29.98c1.236,1.195,1.926,2.555,2.062,4.076h-2.369c-0.262-1.156-0.787-2.072-1.576-2.746
			c-0.787-0.676-1.893-1.014-3.312-1.014c-1.736,0-3.139,0.621-4.205,1.863s-1.598,3.145-1.598,5.711
			c0,2.102,0.48,3.807,1.445,5.113c0.961,1.309,2.398,1.961,4.311,1.961c1.758,0,3.096-0.688,4.016-2.062
			c0.488-0.725,0.854-1.676,1.092-2.857h2.367c-0.209,1.889-0.9,3.471-2.074,4.748c-1.408,1.539-3.305,2.309-5.695,2.309
			c-2.059,0-3.789-0.631-5.188-1.895c-1.844-1.668-2.766-4.246-2.766-7.73c0-2.646,0.691-4.818,2.076-6.512
			c1.496-1.84,3.561-2.76,6.189-2.76C243.535,28.186,245.279,28.783,246.518,29.98z"/>
		<path d="M251.949,28.674h2.453v7.408h9.217v-7.408h2.453v17.932h-2.453v-8.387h-9.217v8.387h-2.453V28.674z"/>
	</g>
	<g>
		<path d="M269.52,50.354c-0.697-0.852-1.047-1.889-1.047-3.107h1.721c0.074,0.848,0.232,1.465,0.477,1.848
			c0.428,0.691,1.199,1.035,2.314,1.035c0.867,0,1.562-0.23,2.09-0.695c0.523-0.463,0.785-1.062,0.785-1.795
			c0-0.902-0.275-1.535-0.826-1.895c-0.555-0.361-1.322-0.541-2.303-0.541c-0.113,0-0.223,0.002-0.334,0.004
			c-0.115,0.004-0.23,0.01-0.346,0.014v-1.455c0.172,0.02,0.316,0.031,0.43,0.037c0.117,0.006,0.242,0.01,0.377,0.01
			c0.615,0,1.123-0.098,1.518-0.293c0.699-0.342,1.047-0.953,1.047-1.832c0-0.652-0.232-1.156-0.697-1.51
			c-0.463-0.354-1.002-0.531-1.621-0.531c-1.098,0-1.857,0.365-2.277,1.098c-0.234,0.404-0.363,0.977-0.396,1.723h-1.627
			c0-0.977,0.195-1.807,0.586-2.49c0.67-1.221,1.85-1.832,3.541-1.832c1.34,0,2.371,0.299,3.104,0.893
			c0.732,0.596,1.1,1.457,1.1,2.586c0,0.807-0.219,1.459-0.65,1.959c-0.268,0.312-0.617,0.557-1.041,0.734
			c0.688,0.188,1.227,0.553,1.613,1.094c0.387,0.539,0.582,1.199,0.582,1.98c0,1.252-0.412,2.271-1.236,3.059
			c-0.822,0.787-1.992,1.18-3.506,1.18C271.344,51.629,270.219,51.205,269.52,50.354z"/>
	</g>
	<polygon points="239.172,50.877 240.672,51.125 236.422,72.625 235.547,72.877 234.922,72.502 	"/>
	<polygon points="297.422,89.752 296.797,91.375 262.422,98.127 261.922,97.502 262.172,96.627 	"/>
	<g>
		<path d="M327.377,110.254c1.236,1.195,1.926,2.555,2.062,4.076h-2.369c-0.262-1.156-0.787-2.072-1.576-2.746
			c-0.787-0.676-1.893-1.014-3.312-1.014c-1.736,0-3.139,0.621-4.205,1.863s-1.598,3.145-1.598,5.711
			c0,2.102,0.48,3.807,1.445,5.113c0.961,1.309,2.398,1.961,4.311,1.961c1.758,0,3.096-0.688,4.016-2.062
			c0.488-0.725,0.854-1.676,1.092-2.857h2.367c-0.209,1.889-0.9,3.471-2.074,4.748c-1.408,1.539-3.305,2.309-5.695,2.309
			c-2.059,0-3.789-0.631-5.188-1.895c-1.844-1.668-2.766-4.246-2.766-7.73c0-2.646,0.691-4.818,2.076-6.512
			c1.496-1.84,3.561-2.76,6.189-2.76C324.395,108.459,326.139,109.057,327.377,110.254z"/>
		<path d="M332.809,108.947h2.453v7.408h9.217v-7.408h2.453v17.932h-2.453v-8.387h-9.217v8.387h-2.453V108.947z"/>
	</g>
	<g>
		<path d="M350.398,130.627c-0.697-0.852-1.047-1.889-1.047-3.107h1.721c0.074,0.848,0.232,1.465,0.477,1.848
			c0.428,0.691,1.199,1.035,2.314,1.035c0.867,0,1.562-0.23,2.09-0.695c0.523-0.463,0.785-1.062,0.785-1.795
			c0-0.902-0.275-1.535-0.826-1.895c-0.555-0.361-1.322-0.541-2.303-0.541c-0.113,0-0.223,0.002-0.334,0.004
			c-0.115,0.004-0.23,0.01-0.346,0.014v-1.455c0.172,0.02,0.316,0.031,0.43,0.037c0.117,0.006,0.242,0.01,0.377,0.01
			c0.615,0,1.123-0.098,1.518-0.293c0.699-0.342,1.047-0.953,1.047-1.832c0-0.652-0.232-1.156-0.697-1.51
			c-0.463-0.354-1.002-0.531-1.621-0.531c-1.098,0-1.857,0.365-2.277,1.098c-0.234,0.404-0.363,0.977-0.396,1.723h-1.627
			c0-0.977,0.195-1.807,0.586-2.49c0.67-1.221,1.85-1.832,3.541-1.832c1.34,0,2.371,0.299,3.104,0.893
			c0.732,0.596,1.1,1.457,1.1,2.586c0,0.807-0.219,1.459-0.65,1.959c-0.268,0.312-0.617,0.557-1.041,0.734
			c0.688,0.188,1.227,0.553,1.613,1.094c0.387,0.539,0.582,1.199,0.582,1.98c0,1.252-0.412,2.271-1.236,3.059
			c-0.822,0.787-1.992,1.18-3.506,1.18C352.223,131.902,351.098,131.479,350.398,130.627z"/>
	</g>
	<polygon points="313.422,108.127 312.297,109.127 296.797,91.375 297.422,89.752 	"/>
	<g>
		<path d="M205.826,192.541h2.861l8.943,14.49v-14.49h2.318v17.932h-2.729l-9.076-14.471v14.471h-2.318V192.541z"/>
	</g>
	<polygon points="207.422,236.875 206.547,237.25 205.922,236.752 210.172,214.125 211.672,214.375 	"/>
	<polygon points="239.047,251.504 239.172,252.5 238.297,252.875 206.547,238.125 206.547,237.25 207.422,236.875 	"/>
	<polygon points="262.797,226 263.672,226.127 264.047,226.875 239.797,252.875 239.172,252.5 239.047,251.504 	"/>
	<polygon points="255.172,224.75 256.297,225.75 238.172,245.125 237.047,244.125 	"/>
	<polygon points="246.172,197.377 246.547,196.504 247.422,196.504 264.172,225.502 263.672,226.127 262.797,226 	"/>
	<polygon points="223.922,202.25 223.547,200.75 246.047,195.879 246.547,196.504 246.172,197.377 	"/>
	<polygon points="205.922,236.752 206.547,237.25 206.547,238.125 174.047,254.5 173.172,254.125 173.172,253.25 	"/>
	<polygon points="206.297,244.125 207.047,245.375 181.172,258.379 180.547,257.129 	"/>
	<polygon points="260.047,162.625 261.672,162.625 247.422,196.504 246.547,196.504 246.047,195.879 	"/>
	<polygon points="252.922,162.375 254.297,163 242.547,190.752 241.172,190.127 	"/>
	<g>
		<path d="M128.072,194.807h2.861l8.943,14.49v-14.49h2.318v17.932h-2.729l-9.076-14.471v14.471h-2.318V194.807z"/>
	</g>
	<polygon points="97.922,199.629 97.547,198.75 98.047,198.125 124.297,203.002 124.047,204.5 	"/>
	<polygon points="82.672,231 80.922,231.375 96.672,198.75 97.547,198.75 97.922,199.629 	"/>
	<polygon points="107.922,255.254 107.797,256.127 106.922,256.375 80.922,231.375 82.672,231 	"/>
	<polygon points="138.672,238.75 139.547,239.125 139.547,240 108.422,256.625 107.797,256.127 107.922,255.254 	"/>
	<polygon points="134.922,217.5 136.422,217.25 140.172,238.627 139.547,239.125 138.672,238.75 	"/>
	<polygon points="128.547,218.627 130.047,218.379 133.047,235.502 131.547,235.75 	"/>
	<polygon points="98.047,198.125 97.547,198.75 96.672,198.75 80.797,166.375 82.547,166.375 	"/>
	<polygon points="102.547,192.5 101.172,193.125 88.172,166.75 89.547,166.002 	"/>
	<polygon points="173.172,253.25 173.172,254.125 172.547,254.629 139.547,240 139.547,239.125 140.172,238.627 	"/>
	<g>
		<path d="M12.234,228.83h2.453v7.408h9.217v-7.408h2.455v17.932h-2.455v-8.387h-9.217v8.387h-2.453V228.83z"/>
	</g>
	<g>
		<path d="M29.793,250.51c-0.697-0.854-1.047-1.889-1.047-3.107h1.721c0.074,0.848,0.23,1.465,0.477,1.85
			c0.426,0.689,1.199,1.033,2.316,1.033c0.865,0,1.562-0.232,2.086-0.695c0.525-0.465,0.787-1.062,0.787-1.795
			c0-0.904-0.275-1.533-0.828-1.895c-0.551-0.359-1.32-0.541-2.303-0.541c-0.109,0-0.221,0-0.334,0.006
			c-0.111,0.002-0.227,0.008-0.344,0.012v-1.455c0.172,0.018,0.314,0.031,0.43,0.037c0.117,0.008,0.242,0.01,0.377,0.01
			c0.617,0,1.123-0.098,1.52-0.293c0.695-0.342,1.045-0.953,1.045-1.832c0-0.652-0.232-1.156-0.697-1.51
			c-0.463-0.354-1.004-0.529-1.621-0.529c-1.098,0-1.857,0.365-2.279,1.098c-0.23,0.4-0.363,0.977-0.395,1.719h-1.627
			c0-0.975,0.193-1.805,0.586-2.49c0.67-1.219,1.852-1.83,3.541-1.83c1.338,0,2.371,0.297,3.104,0.893s1.1,1.457,1.1,2.588
			c0,0.805-0.217,1.457-0.65,1.957c-0.268,0.312-0.615,0.559-1.043,0.734c0.689,0.189,1.229,0.553,1.615,1.094
			c0.387,0.539,0.582,1.199,0.582,1.98c0,1.254-0.412,2.271-1.236,3.059c-0.822,0.787-1.992,1.18-3.506,1.18
			C31.617,251.785,30.492,251.361,29.793,250.51z"/>
	</g>
	<g>
		<path d="M53.334,230.137c1.238,1.195,1.926,2.555,2.062,4.076h-2.369c-0.262-1.154-0.789-2.07-1.574-2.746
			c-0.789-0.678-1.895-1.014-3.316-1.014c-1.734,0-3.135,0.621-4.201,1.863s-1.6,3.146-1.6,5.713c0,2.1,0.48,3.803,1.445,5.111
			c0.963,1.307,2.398,1.961,4.309,1.961c1.76,0,3.1-0.688,4.018-2.062c0.488-0.727,0.852-1.678,1.092-2.857h2.367
			c-0.207,1.889-0.9,3.473-2.074,4.748c-1.408,1.539-3.307,2.309-5.695,2.309c-2.061,0-3.789-0.631-5.188-1.893
			c-1.844-1.67-2.766-4.248-2.766-7.734c0-2.646,0.693-4.814,2.076-6.51c1.496-1.84,3.561-2.76,6.189-2.76
			C50.354,228.342,52.094,228.939,53.334,230.137z"/>
	</g>
	<polygon points="60.297,238.75 58.922,231.375 60.547,231.375 61.672,238.25 	"/>
	<polygon points="67.297,236.127 66.547,231.504 68.047,231.504 68.797,235.625 	"/>
	<polygon points="74.297,233.5 74.047,231.504 75.547,231.504 75.797,233.002 	"/>
	<polygon points="106.547,291 98.797,292.5 106.922,256.375 107.797,256.127 108.422,256.625 	"/>
	<polygon points="70.297,305.625 68.797,304.629 98.797,292.5 106.547,291 	"/>
	<polygon points="182.672,292.754 181.422,294.252 172.547,254.629 173.172,254.125 174.047,254.5 	"/>
	<polygon points="227.547,294.252 226.547,292.754 238.297,252.875 239.172,252.5 239.797,252.875 	"/>
	<polygon points="226.547,292.754 227.547,294.252 181.422,294.252 182.672,292.754 	"/>
	<polygon points="70.297,341.625 68.797,340.75 68.797,304.629 70.297,305.625 	"/>
	<g>
		<path d="M13.873,350.432h8.15c1.344,0,2.449,0.199,3.32,0.598c1.654,0.764,2.482,2.178,2.482,4.236
			c0,1.074-0.223,1.953-0.666,2.637s-1.064,1.232-1.861,1.648c0.699,0.285,1.227,0.658,1.58,1.121
			c0.355,0.465,0.553,1.217,0.594,2.26l0.084,2.404c0.025,0.684,0.082,1.191,0.172,1.525c0.146,0.568,0.406,0.936,0.781,1.1v0.402
			h-2.979c-0.082-0.154-0.146-0.354-0.195-0.598s-0.09-0.715-0.123-1.416l-0.146-2.99c-0.055-1.172-0.479-1.959-1.27-2.357
			c-0.449-0.219-1.158-0.33-2.123-0.33h-5.371v7.691h-2.43V350.432z M21.762,358.646c1.109,0,1.986-0.227,2.631-0.684
			s0.967-1.277,0.967-2.467c0-1.275-0.451-2.148-1.354-2.611c-0.482-0.244-1.127-0.365-1.936-0.365h-5.768v6.127H21.762z"/>
		<path d="M46.404,352.994c1.188,1.588,1.783,3.619,1.783,6.092c0,2.678-0.68,4.902-2.039,6.678
			c-1.596,2.082-3.869,3.125-6.824,3.125c-2.758,0-4.928-0.912-6.506-2.734c-1.408-1.758-2.111-3.98-2.111-6.666
			c0-2.424,0.602-4.5,1.807-6.225c1.547-2.215,3.832-3.32,6.859-3.32C42.539,349.943,44.883,350.961,46.404,352.994z
			 M44.262,364.426c0.957-1.535,1.436-3.301,1.436-5.299c0-2.109-0.553-3.807-1.654-5.092c-1.102-1.287-2.609-1.932-4.523-1.932
			c-1.855,0-3.369,0.637-4.541,1.912c-1.172,1.273-1.758,3.154-1.758,5.639c0,1.988,0.504,3.662,1.508,5.027
			c1.006,1.365,2.635,2.045,4.889,2.045C41.758,366.727,43.307,365.961,44.262,364.426z"/>
	</g>
	<polygon points="50.922,352.754 50.172,351.504 68.797,340.75 70.297,341.625 	"/>
	<g>
		<path d="M108.605,352.994c1.188,1.588,1.781,3.619,1.781,6.092c0,2.678-0.68,4.902-2.039,6.678
			c-1.596,2.082-3.869,3.125-6.824,3.125c-2.758,0-4.928-0.912-6.506-2.734c-1.406-1.758-2.111-3.98-2.111-6.666
			c0-2.424,0.602-4.5,1.807-6.225c1.547-2.215,3.834-3.32,6.861-3.32C104.738,349.943,107.082,350.961,108.605,352.994z
			 M106.463,364.426c0.955-1.535,1.434-3.301,1.434-5.299c0-2.109-0.553-3.807-1.654-5.092c-1.102-1.287-2.609-1.932-4.523-1.932
			c-1.855,0-3.367,0.637-4.539,1.912c-1.172,1.273-1.758,3.154-1.758,5.639c0,1.988,0.502,3.662,1.506,5.027
			c1.006,1.365,2.635,2.045,4.889,2.045C103.957,366.727,105.506,365.961,106.463,364.426z"/>
	</g>
	<polygon points="92.172,349.629 91.422,350.879 69.172,338.125 69.922,336.752 	"/>
	<polygon points="88.922,355.125 88.172,356.504 65.922,343.627 66.672,342.377 	"/>
	<polygon points="170.422,321.127 163.922,317.377 164.797,316.127 171.047,319.75 	"/>
	<polygon points="173.297,314.375 168.422,311.504 169.297,310.254 173.922,312.875 	"/>
	<polygon points="176.172,307.5 172.922,305.625 173.797,304.375 176.672,306.127 	"/>
	<polygon points="178.922,300.75 177.297,299.75 178.297,298.5 179.547,299.252 	"/>
	<g>
		<path d="M136.105,318.502c1.188,1.588,1.781,3.619,1.781,6.092c0,2.678-0.68,4.902-2.039,6.678
			c-1.596,2.082-3.869,3.125-6.824,3.125c-2.758,0-4.928-0.912-6.506-2.734c-1.406-1.758-2.111-3.98-2.111-6.666
			c0-2.424,0.602-4.5,1.807-6.225c1.547-2.215,3.834-3.32,6.861-3.32C132.238,315.451,134.582,316.469,136.105,318.502z
			 M133.963,329.934c0.955-1.535,1.434-3.301,1.434-5.299c0-2.109-0.553-3.807-1.654-5.092c-1.102-1.287-2.609-1.932-4.523-1.932
			c-1.855,0-3.367,0.637-4.539,1.912c-1.172,1.273-1.758,3.154-1.758,5.639c0,1.988,0.502,3.662,1.506,5.027
			c1.006,1.365,2.635,2.045,4.889,2.045C131.457,332.234,133.006,331.469,133.963,329.934z"/>
	</g>
	<rect x="141.797" y="327.129" width="24.125" height="1.498"/>
	<rect x="141.797" y="320.75" width="24.125" height="1.5"/>
	<g>
		<path d="M189.973,349.635c1.188,1.588,1.781,3.619,1.781,6.092c0,2.678-0.68,4.902-2.039,6.678
			c-1.594,2.082-3.869,3.125-6.824,3.125c-2.758,0-4.928-0.912-6.506-2.734c-1.406-1.758-2.111-3.98-2.111-6.666
			c0-2.424,0.602-4.5,1.807-6.225c1.547-2.215,3.834-3.32,6.861-3.32C186.107,346.584,188.451,347.602,189.973,349.635z
			 M187.828,361.066c0.957-1.535,1.436-3.301,1.436-5.299c0-2.109-0.553-3.807-1.654-5.092c-1.102-1.287-2.609-1.932-4.523-1.932
			c-1.855,0-3.367,0.637-4.539,1.912c-1.172,1.273-1.758,3.154-1.758,5.639c0,1.988,0.502,3.662,1.506,5.027
			c1.006,1.365,2.635,2.045,4.889,2.045C185.324,363.367,186.873,362.602,187.828,361.066z"/>
		<path d="M207.33,348.379c1.238,1.195,1.926,2.555,2.062,4.076h-2.367c-0.264-1.154-0.789-2.07-1.578-2.746
			c-0.785-0.678-1.893-1.014-3.312-1.014c-1.736,0-3.137,0.621-4.205,1.863c-1.066,1.242-1.598,3.146-1.598,5.713
			c0,2.1,0.48,3.803,1.445,5.111c0.961,1.307,2.398,1.961,4.311,1.961c1.758,0,3.096-0.688,4.018-2.062
			c0.488-0.727,0.852-1.678,1.09-2.857h2.369c-0.211,1.889-0.9,3.473-2.076,4.748c-1.408,1.539-3.305,2.309-5.695,2.309
			c-2.059,0-3.789-0.631-5.188-1.893c-1.844-1.67-2.764-4.248-2.764-7.734c0-2.646,0.689-4.814,2.074-6.51
			c1.498-1.84,3.561-2.76,6.189-2.76C204.35,346.584,206.092,347.182,207.33,348.379z"/>
		<path d="M212.762,347.072h2.453v7.408h9.217v-7.408h2.455v17.932h-2.455v-8.387h-9.217v8.387h-2.453V347.072z"/>
	</g>
	<g>
		<path d="M230.34,368.732c-0.697-0.854-1.047-1.889-1.047-3.107h1.721c0.074,0.848,0.232,1.465,0.477,1.85
			c0.428,0.689,1.199,1.033,2.314,1.033c0.867,0,1.562-0.232,2.09-0.695c0.523-0.465,0.785-1.062,0.785-1.795
			c0-0.904-0.275-1.533-0.826-1.895c-0.555-0.359-1.322-0.541-2.303-0.541c-0.113,0-0.223,0-0.334,0.006
			c-0.115,0.002-0.23,0.008-0.346,0.012v-1.455c0.172,0.018,0.316,0.031,0.43,0.037c0.117,0.008,0.242,0.01,0.377,0.01
			c0.615,0,1.123-0.098,1.518-0.293c0.699-0.342,1.047-0.953,1.047-1.832c0-0.652-0.232-1.156-0.697-1.51
			c-0.463-0.354-1.002-0.529-1.621-0.529c-1.098,0-1.857,0.365-2.277,1.098c-0.234,0.4-0.363,0.977-0.396,1.719h-1.627
			c0-0.975,0.195-1.805,0.586-2.49c0.67-1.219,1.85-1.83,3.541-1.83c1.34,0,2.371,0.297,3.104,0.893s1.1,1.457,1.1,2.588
			c0,0.805-0.219,1.457-0.65,1.957c-0.268,0.312-0.617,0.559-1.041,0.734c0.688,0.189,1.227,0.553,1.613,1.094
			c0.387,0.539,0.582,1.199,0.582,1.98c0,1.254-0.412,2.271-1.236,3.059c-0.822,0.787-1.992,1.18-3.506,1.18
			C232.164,370.008,231.039,369.584,230.34,368.732z"/>
	</g>
	<polygon points="176.297,344.375 175.047,345.125 163.422,325 164.672,324.252 	"/>
	<g>
		<path d="M256.477,316.119c1.188,1.588,1.781,3.619,1.781,6.092c0,2.678-0.68,4.902-2.039,6.678
			c-1.594,2.082-3.869,3.125-6.824,3.125c-2.758,0-4.926-0.912-6.506-2.734c-1.408-1.758-2.111-3.98-2.111-6.666
			c0-2.424,0.604-4.5,1.807-6.225c1.545-2.215,3.834-3.32,6.861-3.32C252.611,313.068,254.955,314.086,256.477,316.119z
			 M254.332,327.551c0.957-1.535,1.436-3.301,1.436-5.299c0-2.109-0.553-3.807-1.654-5.092c-1.102-1.287-2.611-1.932-4.523-1.932
			c-1.855,0-3.367,0.637-4.539,1.912c-1.172,1.273-1.758,3.154-1.758,5.639c0,1.988,0.502,3.662,1.508,5.027
			c1.004,1.365,2.635,2.045,4.887,2.045C251.83,329.852,253.377,329.086,254.332,327.551z"/>
	</g>
	<polygon points="244.172,309.75 242.922,310.625 227.547,290.125 228.797,289.125 	"/>
	<polygon points="239.047,313.627 237.797,314.5 222.422,294.004 223.672,293.002 	"/>
	<g>
		<path d="M306.01,222.754c1.236,1.195,1.926,2.555,2.062,4.076h-2.369c-0.262-1.154-0.787-2.07-1.576-2.746
			c-0.787-0.678-1.893-1.014-3.312-1.014c-1.736,0-3.139,0.621-4.205,1.863s-1.598,3.146-1.598,5.713c0,2.1,0.48,3.803,1.445,5.111
			c0.961,1.307,2.398,1.961,4.311,1.961c1.758,0,3.096-0.688,4.016-2.062c0.488-0.727,0.854-1.678,1.092-2.857h2.367
			c-0.209,1.889-0.9,3.473-2.074,4.748c-1.408,1.539-3.305,2.309-5.695,2.309c-2.059,0-3.789-0.631-5.188-1.893
			c-1.844-1.67-2.766-4.248-2.766-7.734c0-2.646,0.691-4.814,2.076-6.51c1.496-1.84,3.561-2.76,6.189-2.76
			C303.027,220.959,304.771,221.557,306.01,222.754z"/>
		<path d="M311.441,221.447h2.453v7.408h9.217v-7.408h2.453v17.932h-2.453v-8.387h-9.217v8.387h-2.453V221.447z"/>
	</g>
	<g>
		<path d="M329.012,243.127c-0.697-0.854-1.047-1.889-1.047-3.107h1.721c0.074,0.848,0.232,1.465,0.477,1.85
			c0.428,0.689,1.199,1.033,2.314,1.033c0.867,0,1.562-0.232,2.09-0.695c0.523-0.465,0.785-1.062,0.785-1.795
			c0-0.904-0.275-1.533-0.826-1.895c-0.555-0.359-1.322-0.541-2.303-0.541c-0.113,0-0.223,0-0.334,0.006
			c-0.115,0.002-0.23,0.008-0.346,0.012v-1.455c0.172,0.018,0.316,0.031,0.43,0.037c0.117,0.008,0.242,0.01,0.377,0.01
			c0.615,0,1.123-0.098,1.518-0.293c0.699-0.342,1.047-0.953,1.047-1.832c0-0.652-0.232-1.156-0.697-1.51
			c-0.463-0.354-1.002-0.529-1.621-0.529c-1.098,0-1.857,0.365-2.277,1.098c-0.234,0.4-0.363,0.977-0.396,1.719h-1.627
			c0-0.975,0.195-1.805,0.586-2.49c0.67-1.219,1.85-1.83,3.541-1.83c1.34,0,2.371,0.297,3.104,0.893s1.1,1.457,1.1,2.588
			c0,0.805-0.219,1.457-0.65,1.957c-0.268,0.312-0.617,0.559-1.041,0.734c0.688,0.189,1.227,0.553,1.613,1.094
			c0.387,0.539,0.582,1.199,0.582,1.98c0,1.254-0.412,2.271-1.236,3.059c-0.822,0.787-1.992,1.18-3.506,1.18
			C330.836,244.402,329.711,243.979,329.012,243.127z"/>
	</g>
	<polygon points="288.797,229.375 288.672,230.879 264.047,226.875 263.672,226.127 264.172,225.502 	"/>
	<g>
		<path d="M157.777,154.572h3.48l5.156,15.16l5.119-15.16h3.455v17.932h-2.318V161.92c0-0.365,0.008-0.973,0.023-1.818
			s0.025-1.754,0.025-2.723l-5.121,15.125h-2.406l-5.168-15.125v0.551c0,0.438,0.012,1.107,0.035,2.008
			c0.025,0.898,0.037,1.559,0.037,1.982v10.584h-2.318V154.572z"/>
		<path d="M185.639,159.955c0.412,0.285,0.834,0.699,1.264,1.244v-1.646h2.027v11.889c0,1.66-0.244,2.971-0.73,3.932
			c-0.908,1.773-2.625,2.66-5.146,2.66c-1.402,0-2.584-0.314-3.541-0.945s-1.492-1.617-1.605-2.961h2.234
			c0.105,0.586,0.314,1.037,0.631,1.355c0.494,0.488,1.271,0.732,2.332,0.732c1.674,0,2.771-0.594,3.289-1.781
			c0.307-0.701,0.449-1.951,0.424-3.748c-0.438,0.668-0.963,1.162-1.582,1.488c-0.613,0.326-1.428,0.488-2.441,0.488
			c-1.41,0-2.645-0.502-3.703-1.508c-1.059-1.004-1.586-2.666-1.586-4.986c0-2.188,0.533-3.896,1.598-5.127
			c1.066-1.229,2.354-1.842,3.861-1.842C183.984,159.199,184.877,159.451,185.639,159.955z M185.906,162.311
			c-0.664-0.781-1.51-1.172-2.537-1.172c-1.539,0-2.592,0.725-3.158,2.174c-0.299,0.771-0.449,1.785-0.449,3.039
			c0,1.473,0.297,2.594,0.893,3.363s1.395,1.152,2.398,1.152c1.572,0,2.676-0.711,3.314-2.135c0.357-0.807,0.535-1.746,0.535-2.82
			C186.902,164.293,186.57,163.092,185.906,162.311z"/>
	</g>
	<polygon points="158.047,148.377 157.047,149.5 144.422,137.752 145.422,136.75 	"/>
	<polygon points="201.672,191.125 200.672,192.127 189.047,180.5 190.172,179.5 	"/>
	<polygon points="184.047,153.752 183.047,152.752 187.422,148.25 188.547,149.377 	"/>
	<polygon points="197.297,140.5 196.297,139.5 200.672,135.002 201.672,136.125 	"/>
	<polygon points="145.422,192.5 144.422,191.377 148.797,187 149.922,188 	"/>
	<polygon points="154.422,183.502 153.297,182.502 157.672,178.127 158.797,179.127 	"/>
	<g>
		<path d="M192.637,148.156h1.842v13.449h-1.842V148.156z"/>
		<path d="M197.848,148.156h1.84v13.449h-1.84V148.156z"/>
	</g>
</g>
<rect x="219.936" y="15.693" fill="none" stroke="#009900" stroke-width="4" width="72.723" height="46.863"/>
</svg>
